<svg id="Layer_1" data-name="Layer 1" xmlns="http://www.w3.org/2000/svg" viewBox="0 0 111.66 55.15"><g id="logo_rcvn" data-name="logo rcvn"><g id="Component_85_13" data-name="Component 85 13"><g id="Group_599" data-name="Group 599"><path id="Path_173" data-name="Path 173" d="M17.5,28l-5.31-7.67H6.38V28H0V.43H11.9a15.5,15.5,0,0,1,6.31,1.22,9,9,0,0,1,4.16,3.44,10.33,10.33,0,0,1-.07,10.62,9.34,9.34,0,0,1-4.16,3.37L24.31,28H17.49Zm-.14-17.57A4.17,4.17,0,0,0,15.85,7a6.48,6.48,0,0,0-4.37-1.3H6.31v9.61h5.17A6.42,6.42,0,0,0,15.85,14a4.25,4.25,0,0,0,1.51-3.51Z" transform="translate(0 0)" style="fill:#777"/><path id="Path_174" data-name="Path 174" d="M42.1,28.54a15.57,15.57,0,0,1-7.6-1.79,14.68,14.68,0,0,1-5.38-5.09,14.21,14.21,0,0,1-1.94-7.39A13.91,13.91,0,0,1,29.12,7a13.6,13.6,0,0,1,5.38-5.1A16.24,16.24,0,0,1,42.17,0a15.77,15.77,0,0,1,6.46,1.29A13,13,0,0,1,53.5,5l-4.09,3.8a8.78,8.78,0,0,0-6.95-3.23,8.88,8.88,0,0,0-4.59,1.15,8.13,8.13,0,0,0-3.16,3.08,10.36,10.36,0,0,0,0,9.18,8.41,8.41,0,0,0,3.16,3.16,9.63,9.63,0,0,0,4.59,1.07,8.71,8.71,0,0,0,6.95-3.3l4.09,3.8a13,13,0,0,1-4.87,3.66A17.6,17.6,0,0,1,42.1,28.54Z" transform="translate(0 0)" style="fill:#777"/><path id="Path_175" data-name="Path 175" d="M84.05.5,72.15,28.11H65.84L53.93.5h6.89l8.39,19.73L77.74.5Z" transform="translate(0 0)" style="fill:#777"/><path id="Path_176" data-name="Path 176" d="M111.66.5V28.11h-5.23L92.66,11.33V28.11H86.35V.5h5.3l13.7,16.79V.5Z" transform="translate(0 0)" style="fill:#777"/></g><g id="Rénovation_et_construction_VN" data-name="Rénovation et construction VN" style="isolation:isolate"><g style="isolation:isolate"><path d="M1.36,42v-9.1H4.1a3.15,3.15,0,0,1,2.26.77,2.51,2.51,0,0,1,.82,1.93A2.7,2.7,0,0,1,6.81,37a2.57,2.57,0,0,1-1,1L8,42h-2L4.16,38.42h-1V42Zm1.83-5.11h.86a1.31,1.31,0,0,0,.89-.32,1.15,1.15,0,0,0,.35-.9,1.08,1.08,0,0,0-.35-.86,1.4,1.4,0,0,0-1-.32H3.19Z" transform="translate(0 0)" style="fill:#777"/><path d="M8.43,38.6A3.64,3.64,0,0,1,9.37,36a3.11,3.11,0,0,1,2.39-1,3.08,3.08,0,0,1,2.43,1,3.84,3.84,0,0,1,.87,2.66A3.53,3.53,0,0,1,15,39H10.26a1.51,1.51,0,0,0,.52,1.12,1.83,1.83,0,0,0,1.25.44,1.89,1.89,0,0,0,1.65-.83l1.18.89a3,3,0,0,1-1,1,3.23,3.23,0,0,1-1.85.49A3.39,3.39,0,0,1,8.43,38.6Zm1.88-.74h2.93a1.38,1.38,0,0,0-.43-1,1.45,1.45,0,0,0-1-.38,1.37,1.37,0,0,0-1,.39A1.64,1.64,0,0,0,10.31,37.86Zm.52-3.43.87-1.88h1.89l-1.26,1.88Z" transform="translate(0 0)" style="fill:#777"/><path d="M19.63,35c1.57,0,2.36,1,2.36,3V42h-1.8V37.85a1.22,1.22,0,0,0-.33-.89,1.1,1.1,0,0,0-.8-.34,1.15,1.15,0,0,0-.88.36,1.31,1.31,0,0,0-.33.92V42H16.06v-6.8h1.75V36a2.16,2.16,0,0,1,.73-.67A2.11,2.11,0,0,1,19.63,35Z" transform="translate(0 0)" style="fill:#777"/><path d="M24,41.15A3.66,3.66,0,0,1,24,36a3.84,3.84,0,0,1,5.22,0,3.66,3.66,0,0,1,0,5.11,3.63,3.63,0,0,1-2.64,1A3.57,3.57,0,0,1,24,41.15Zm.76-2.55A2,2,0,0,0,25.28,40,1.91,1.91,0,0,0,28,40a2,2,0,0,0,.53-1.41A2,2,0,0,0,28,37.16a1.87,1.87,0,0,0-2.67,0A2,2,0,0,0,24.76,38.6Z" transform="translate(0 0)" style="fill:#777"/><path d="M35.17,42H33.09l-2.43-6.8h1.91l1.56,4.89,1.56-4.89H37.6Z" transform="translate(0 0)" style="fill:#777"/><path d="M38,39.87a2,2,0,0,1,.73-1.62,2.82,2.82,0,0,1,1.91-.63,2.54,2.54,0,0,1,1.47.38v-.44a.93.93,0,0,0-.32-.73,1.39,1.39,0,0,0-.91-.27A4,4,0,0,0,39,37l-.68-1.22a4.46,4.46,0,0,1,1.22-.57A4.6,4.6,0,0,1,41,35a2.89,2.89,0,0,1,2.19.71,2.81,2.81,0,0,1,.65,2V42H42.28l-.12-.44a2.14,2.14,0,0,1-1.65.61,2.72,2.72,0,0,1-1.81-.62A2.05,2.05,0,0,1,38,39.87Zm2.12-.73a.85.85,0,0,0-.32.68.82.82,0,0,0,.34.68,1.5,1.5,0,0,0,1.69,0,.81.81,0,0,0,.32-.68.83.83,0,0,0-.32-.69,1.38,1.38,0,0,0-.86-.26A1.29,1.29,0,0,0,40.08,39.14Z" transform="translate(0 0)" style="fill:#777"/><path d="M45.36,35.18V33.75h1.77v1.43H48.4v1.46H47.13v2.62a1.46,1.46,0,0,0,.23,1,1,1,0,0,0,.77.24h.32V42a3.68,3.68,0,0,1-.76.06,2.2,2.2,0,0,1-1.78-.68,3.27,3.27,0,0,1-.56-2.08V36.64h-.72V35.18Z" transform="translate(0 0)" style="fill:#777"/><path d="M49.66,34.28a1,1,0,0,1-.3-.74,1,1,0,0,1,.3-.73,1,1,0,0,1,.74-.29,1,1,0,0,1,.76.29,1,1,0,0,1,.3.73,1,1,0,0,1-.3.74,1.06,1.06,0,0,1-.76.29A1,1,0,0,1,49.66,34.28ZM49.52,42v-6.8h1.79V42Z" transform="translate(0 0)" style="fill:#777"/><path d="M53.39,41.15a3.66,3.66,0,0,1,0-5.12,3.84,3.84,0,0,1,5.22,0,3.66,3.66,0,0,1,0,5.11,3.95,3.95,0,0,1-5.25,0Zm.76-2.55A2,2,0,0,0,54.67,40a1.91,1.91,0,0,0,2.68,0,2,2,0,0,0,.53-1.41,2,2,0,0,0-.53-1.44,1.88,1.88,0,0,0-2.68,0A2,2,0,0,0,54.15,38.6Z" transform="translate(0 0)" style="fill:#777"/><path d="M64.28,35c1.56,0,2.35,1,2.35,3V42h-1.8V37.85A1.22,1.22,0,0,0,64.5,37a1.09,1.09,0,0,0-.8-.34,1.12,1.12,0,0,0-.87.36,1.28,1.28,0,0,0-.34.92V42H60.7v-6.8h1.76V36a2,2,0,0,1,.72-.67A2.12,2.12,0,0,1,64.28,35Z" transform="translate(0 0)" style="fill:#777"/><path d="M70.84,38.6A3.64,3.64,0,0,1,71.78,36a3.12,3.12,0,0,1,2.39-1,3.08,3.08,0,0,1,2.43,1,3.84,3.84,0,0,1,.87,2.66c0,.17,0,.3,0,.39H72.67a1.51,1.51,0,0,0,.52,1.12,1.83,1.83,0,0,0,1.25.44,1.89,1.89,0,0,0,1.65-.83l1.18.89a2.93,2.93,0,0,1-1,1,3.19,3.19,0,0,1-1.84.49,3.4,3.4,0,0,1-3.58-3.55Zm1.88-.74h2.93a1.38,1.38,0,0,0-.43-1,1.45,1.45,0,0,0-1-.38,1.37,1.37,0,0,0-1,.39A1.64,1.64,0,0,0,72.72,37.86Z" transform="translate(0 0)" style="fill:#777"/><path d="M78.64,35.18V33.75h1.77v1.43h1.27v1.46H80.41v2.62a1.46,1.46,0,0,0,.23,1,1,1,0,0,0,.77.24h.32V42a3.68,3.68,0,0,1-.76.06,2.2,2.2,0,0,1-1.78-.68,3.27,3.27,0,0,1-.56-2.08V36.64h-.72V35.18Z" transform="translate(0 0)" style="fill:#777"/></g><g style="isolation:isolate"><path d="M4.54,53.56A2.35,2.35,0,0,0,6.07,53l.49,1.47a3.29,3.29,0,0,1-2.12.73,3.56,3.56,0,0,1-2.61-1,3.71,3.71,0,0,1,0-5.12,3.53,3.53,0,0,1,2.58-1,3.41,3.41,0,0,1,2.15.73l-.51,1.51a2.27,2.27,0,0,0-1.58-.65,1.73,1.73,0,0,0-1.36.57,2,2,0,0,0-.52,1.42A2,2,0,0,0,3.15,53,1.86,1.86,0,0,0,4.54,53.56Z" transform="translate(0 0)" style="fill:#777"/><path d="M8.21,54.15a3.4,3.4,0,0,1-1-2.55A3.44,3.44,0,0,1,8.23,49a3.56,3.56,0,0,1,2.6-1,3.61,3.61,0,0,1,2.62,1,3.66,3.66,0,0,1,0,5.11,3.63,3.63,0,0,1-2.64,1A3.61,3.61,0,0,1,8.21,54.15ZM9,51.6A2,2,0,0,0,9.5,53a1.76,1.76,0,0,0,1.33.55A1.77,1.77,0,0,0,12.18,53a2,2,0,0,0,.53-1.41,2,2,0,0,0-.54-1.44,1.87,1.87,0,0,0-2.67,0A2,2,0,0,0,9,51.6Z" transform="translate(0 0)" style="fill:#777"/><path d="M19.1,48c1.57,0,2.35,1,2.35,3V55H19.66V50.85a1.22,1.22,0,0,0-.33-.89,1.1,1.1,0,0,0-.8-.34,1.13,1.13,0,0,0-.88.36,1.31,1.31,0,0,0-.33.92V55H15.53v-6.8h1.75V49A2.16,2.16,0,0,1,18,48.3,2.09,2.09,0,0,1,19.1,48Z" transform="translate(0 0)" style="fill:#777"/><path d="M24.89,55.15a3.07,3.07,0,0,1-1.57-.37,2.8,2.8,0,0,1-1-.89l1-.94a2,2,0,0,0,1.56.74,1,1,0,0,0,.61-.16.53.53,0,0,0,.23-.45.55.55,0,0,0-.34-.47,4,4,0,0,0-.8-.37,6.91,6.91,0,0,1-.94-.39,2,2,0,0,1-.8-.69A1.81,1.81,0,0,1,22.58,50a1.76,1.76,0,0,1,.71-1.47A2.72,2.72,0,0,1,25.05,48a2.52,2.52,0,0,1,2.33,1.21l-1.18.89A1.53,1.53,0,0,0,25,49.46a.88.88,0,0,0-.51.14.51.51,0,0,0-.2.4.57.57,0,0,0,.34.48,4,4,0,0,0,.8.35,9.2,9.2,0,0,1,.95.36,2,2,0,0,1,.81.67A1.87,1.87,0,0,1,27.5,53a1.93,1.93,0,0,1-.74,1.57A2.94,2.94,0,0,1,24.89,55.15Z" transform="translate(0 0)" style="fill:#777"/><path d="M28.63,48.18V46.75H30.4v1.43h1.27v1.46H30.4v2.62a1.46,1.46,0,0,0,.23,1,1,1,0,0,0,.77.24h.32V55a3.68,3.68,0,0,1-.76.06,2.2,2.2,0,0,1-1.78-.68,3.27,3.27,0,0,1-.56-2.08V49.64H27.9V48.18Z" transform="translate(0 0)" style="fill:#777"/><path d="M36.42,48v1.82c-1.23,0-1.84.73-1.84,2.19v3H32.79v-6.8h1.75v1a1.92,1.92,0,0,1,.73-.84A2.09,2.09,0,0,1,36.42,48Z" transform="translate(0 0)" style="fill:#777"/><path d="M39.77,55.15c-1.57,0-2.35-1-2.35-3V48.18h1.79v4.13a1.22,1.22,0,0,0,.33.89,1.1,1.1,0,0,0,.8.34,1.13,1.13,0,0,0,.88-.36,1.31,1.31,0,0,0,.33-.92V48.18h1.8V55H41.59v-.79a2.22,2.22,0,0,1-1.82,1Z" transform="translate(0 0)" style="fill:#777"/><path d="M48.05,53.56A2.35,2.35,0,0,0,49.58,53l.49,1.47a3.29,3.29,0,0,1-2.12.73,3.56,3.56,0,0,1-2.61-1,3.71,3.71,0,0,1,0-5.12,3.53,3.53,0,0,1,2.58-1,3.41,3.41,0,0,1,2.15.73l-.51,1.51A2.25,2.25,0,0,0,48,49.6a1.73,1.73,0,0,0-1.36.57,2.05,2.05,0,0,0-.52,1.42A2,2,0,0,0,46.66,53,1.86,1.86,0,0,0,48.05,53.56Z" transform="translate(0 0)" style="fill:#777"/><path d="M51.24,48.18V46.75H53v1.43h1.28v1.46H53v2.62a1.52,1.52,0,0,0,.23,1,1,1,0,0,0,.78.24h.32V55a3.79,3.79,0,0,1-.77.06,2.19,2.19,0,0,1-1.77-.68,3.21,3.21,0,0,1-.57-2.08V49.64h-.71V48.18Z" transform="translate(0 0)" style="fill:#777"/><path d="M55.54,47.28a1,1,0,0,1-.3-.74,1,1,0,0,1,.3-.73,1.1,1.1,0,0,1,1.49,0,1,1,0,0,1,.3.73,1,1,0,0,1-.3.74,1.1,1.1,0,0,1-1.49,0ZM55.4,55v-6.8h1.79V55Z" transform="translate(0 0)" style="fill:#777"/><path d="M59.26,54.15a3.4,3.4,0,0,1-1-2.55A3.44,3.44,0,0,1,59.28,49a3.56,3.56,0,0,1,2.6-1,3.61,3.61,0,0,1,2.62,1,3.66,3.66,0,0,1,0,5.11,4,4,0,0,1-5.26,0ZM60,51.6A2,2,0,0,0,60.55,53a1.91,1.91,0,0,0,2.68,0,2,2,0,0,0,.52-1.41,2,2,0,0,0-.53-1.44,1.87,1.87,0,0,0-2.67,0A2,2,0,0,0,60,51.6Z" transform="translate(0 0)" style="fill:#777"/><path d="M70.15,48c1.57,0,2.35,1,2.35,3V55H70.71V50.85a1.22,1.22,0,0,0-.33-.89,1.1,1.1,0,0,0-.8-.34,1.13,1.13,0,0,0-.88.36,1.31,1.31,0,0,0-.33.92V55H66.58v-6.8h1.75V49a2.16,2.16,0,0,1,.73-.67A2.09,2.09,0,0,1,70.15,48Z" transform="translate(0 0)" style="fill:#777"/><path d="M81.8,55h-2l-3.35-9.1h2l2.33,6.94,2.32-6.94h2Z" transform="translate(0 0)" style="fill:#777"/><path d="M91.81,55l-3.93-6.19V55h-1.8v-9.1h1.85l3.89,6.24V45.88h1.81V55Z" transform="translate(0 0)" style="fill:#777"/></g></g></g></g></svg>