<svg xmlns="http://www.w3.org/2000/svg" width="209" height="67" fill="#000" viewBox="0 0 209 67">
  <g id="logo_rcvn" transform="translate(194 39)">
    <path id="Path_177" data-name="Path 177" d="M442.71,321.157a2.216,2.216,0,0,1,2.2-2.2h59.977a2.216,2.216,0,0,1,2.2,2.2v59.977a2.216,2.216,0,0,1-2.2,2.2H444.912a2.216,2.216,0,0,1-2.2-2.2Zm43.9,31.816a2.895,2.895,0,0,0,3.946-4.237l-13.707-12.793a2.888,2.888,0,0,0-3.946,0,2.935,2.935,0,0,0,0,4.237Zm4.86,11.3a2.891,2.891,0,0,1-4.86,2.118L465.929,346.66a2.935,2.935,0,0,1,0-4.237,2.888,2.888,0,0,1,3.946,0l20.685,19.729A2.994,2.994,0,0,1,491.473,364.271Zm-18.068,2.077a2.895,2.895,0,0,0,3.946-4.237l-14.205-13.25a2.888,2.888,0,0,0-3.946,0,2.935,2.935,0,0,0,0,4.237Zm-9.221-2.16a2.949,2.949,0,1,1-2.949-2.949A2.96,2.96,0,0,1,464.184,364.188Z" transform="translate(-636.71 -357.956)" fill="#be0f16" fill-rule="evenodd"/>
    <g id="Component_85_7" data-name="Component 85 – 7" transform="translate(-114 -38.977)">
<!--      <g id="Group_599" data-name="Group 599" transform="translate(0)">-->
<!--        <path id="Path_173" data-name="Path 173" d="M461.573,1090.708l-6.107-8.831H448.78v8.831h-7.346v-31.775h13.7a17.811,17.811,0,0,1,7.263,1.4,10.385,10.385,0,0,1,4.787,3.962,11.87,11.87,0,0,1-.083,12.215,10.656,10.656,0,0,1-4.787,3.879l7.1,10.234h-7.841Zm-.165-20.221a4.8,4.8,0,0,0-1.733-4.044,7.484,7.484,0,0,0-5.035-1.485H448.7v11.06h5.942a7.484,7.484,0,0,0,5.035-1.486A4.9,4.9,0,0,0,461.408,1070.487Z" transform="translate(-441.434 -1058.437)" fill="#be0f16"/>-->
<!--        <path id="Path_174" data-name="Path 174" d="M619.78,1089.229a18.02,18.02,0,0,1-8.749-2.063,16.859,16.859,0,0,1-6.19-5.86,16.337,16.337,0,0,1-2.228-8.5,16.043,16.043,0,0,1,2.228-8.419,15.686,15.686,0,0,1,6.19-5.86,18.63,18.63,0,0,1,8.831-2.146,18.093,18.093,0,0,1,7.428,1.486,15.041,15.041,0,0,1,5.612,4.209l-4.7,4.375a10.13,10.13,0,0,0-8.006-3.714,10.256,10.256,0,0,0-5.282,1.32,9.379,9.379,0,0,0-3.631,3.549,11.888,11.888,0,0,0,0,10.564,9.6,9.6,0,0,0,3.631,3.632,11.09,11.09,0,0,0,5.282,1.238,10.074,10.074,0,0,0,8.006-3.8l4.7,4.374a15.037,15.037,0,0,1-5.612,4.209A20.262,20.262,0,0,1,619.78,1089.229Z" transform="translate(-571.333 -1056.381)" fill="#be0f16"/>-->
<!--        <path id="Path_175" data-name="Path 175" d="M795.9,1059.358l-13.7,31.775h-7.263l-13.7-31.775h7.923l9.656,22.7,9.822-22.7Z" transform="translate(-699.175 -1058.78)" fill="#be0f16"/>-->
<!--        <path id="Path_176" data-name="Path 176" d="M982.6,1059.358v31.775h-6.025l-15.846-19.313v19.313h-7.263v-31.775h6.107l15.764,19.313v-19.313Z" transform="translate(-854.094 -1058.78)" fill="#be0f16"/>-->
<!--      </g>-->
<!--      <text id="Rénovation_et_construction_VN" data-name="Rénovation et construction VN" transform="translate(0 36.977)" fill="#be0f16" font-size="15" font-family="Geomanist-Medium, Geomanist" font-weight="500"><tspan x="17.415" y="11">Rénovation et </tspan><tspan x="10.268" y="26">construction VN</tspan></text>-->
    </g>
  </g>
</svg>
