<svg xmlns="http://www.w3.org/2000/svg" width="112.485" height="57.98" viewBox="0 0 112.485 57.98">
  <g id="logo_rcvn" transform="translate(0 0)">
    <g id="Component_85_13" data-name="Component 85 – 13">
      <g id="Group_599" data-name="Group 599">
        <path id="Path_173" data-name="Path 173" d="M458.933,1086.543l-5.307-7.674h-5.809v7.674h-6.383v-27.611h11.9a15.475,15.475,0,0,1,6.311,1.219,9.024,9.024,0,0,1,4.16,3.443,10.314,10.314,0,0,1-.072,10.614,9.26,9.26,0,0,1-4.16,3.371l6.168,8.893h-6.813Zm-.143-17.571a4.167,4.167,0,0,0-1.506-3.514,6.5,6.5,0,0,0-4.375-1.291h-5.164v9.61h5.164a6.5,6.5,0,0,0,4.375-1.291A4.259,4.259,0,0,0,458.79,1068.972Z" transform="translate(-441.434 -1058.502)" fill="#777"/>
        <path id="Path_174" data-name="Path 174" d="M617.53,1084.923a15.659,15.659,0,0,1-7.6-1.793,14.648,14.648,0,0,1-5.379-5.092,14.2,14.2,0,0,1-1.936-7.386,13.94,13.94,0,0,1,1.936-7.315,13.63,13.63,0,0,1,5.379-5.092,16.188,16.188,0,0,1,7.674-1.865,15.722,15.722,0,0,1,6.454,1.291,13.07,13.07,0,0,1,4.877,3.657l-4.088,3.8a8.8,8.8,0,0,0-6.956-3.227,8.913,8.913,0,0,0-4.59,1.147,8.149,8.149,0,0,0-3.156,3.084,10.33,10.33,0,0,0,0,9.179,8.339,8.339,0,0,0,3.156,3.156,9.636,9.636,0,0,0,4.59,1.076,8.754,8.754,0,0,0,6.956-3.3l4.088,3.8a13.066,13.066,0,0,1-4.877,3.657A17.6,17.6,0,0,1,617.53,1084.923Z" transform="translate(-575.433 -1056.381)" fill="#777"/>
        <path id="Path_175" data-name="Path 175" d="M791.361,1059.358l-11.905,27.611h-6.311l-11.905-27.611h6.885l8.391,19.722,8.534-19.722Z" transform="translate(-707.31 -1058.855)" fill="#777"/>
        <path id="Path_176" data-name="Path 176" d="M978.78,1059.358v27.611h-5.235l-13.77-16.782v16.782h-6.311v-27.611h5.307l13.7,16.782v-16.782Z" transform="translate(-867.118 -1058.855)" fill="#777"/>
      </g>
      <text id="Rénovation_et_construction_VN" data-name="Rénovation et construction VN" transform="translate(0.485 31.98)" fill="#777" font-size="13" font-family="Geomanist-Medium, Geomanist" font-weight="500"><tspan x="0" y="10">Rénovation et </tspan><tspan x="0" y="23">construction VN</tspan></text>
    </g>
  </g>
</svg>
