<svg id="logo_rcvn" data-name="logo rcvn" xmlns="http://www.w3.org/2000/svg" viewBox="0 0 128.51 144.19"><path id="Path_177" data-name="Path 177" d="M32,2.2A2.22,2.22,0,0,1,34.2,0h60a2.22,2.22,0,0,1,2.2,2.2v60a2.22,2.22,0,0,1-2.2,2.2h-60a2.22,2.22,0,0,1-2.2-2.2ZM75.9,34a2.9,2.9,0,0,0,3.95-4.24L66.14,17a2.89,2.89,0,0,0-4,0,2.93,2.93,0,0,0-.08,4.15.3.3,0,0,0,.08.08Zm4.86,11.3a2.89,2.89,0,0,1-2.89,2.89,2.94,2.94,0,0,1-2-.77L55.22,27.7a2.94,2.94,0,0,1-.09-4.15l.09-.08a2.89,2.89,0,0,1,4,0L79.85,43.2a3,3,0,0,1,.91,2.12ZM62.69,47.39a2.89,2.89,0,0,0,4-4.23L52.43,29.91a2.88,2.88,0,0,0-3.94,0,2.94,2.94,0,0,0-.09,4.15l.09.08Zm-9.22-2.16a3,3,0,1,1-2.95-2.94,2.95,2.95,0,0,1,2.95,2.94Z" transform="translate(0 0)" style="fill:#fff;fill-rule:evenodd"/><g id="Component_85_1" data-name="Component 85 1"><g id="Group_599" data-name="Group 599"><path id="Path_173" data-name="Path 173" d="M20.14,110.29,14,101.46H7.35v8.83H0V78.52H13.7A17.73,17.73,0,0,1,21,79.92a10.32,10.32,0,0,1,4.79,4,11.88,11.88,0,0,1-.08,12.22A10.77,10.77,0,0,1,20.88,100L28,110.21H20.14ZM20,90.07a4.79,4.79,0,0,0-1.73-4,7.45,7.45,0,0,0-5-1.49H7.27V95.6h5.94a7.44,7.44,0,0,0,5-1.48A4.87,4.87,0,0,0,20,90.07Z" transform="translate(0 0)" style="fill:#fff"/><path id="Path_174" data-name="Path 174" d="M48.45,110.87a18.08,18.08,0,0,1-8.75-2.06A16.89,16.89,0,0,1,33.51,103a16.29,16.29,0,0,1-2.23-8.5A16,16,0,0,1,33.51,86a15.58,15.58,0,0,1,6.19-5.86A18.71,18.71,0,0,1,48.53,78,18.27,18.27,0,0,1,56,79.51a15,15,0,0,1,5.61,4.21l-4.7,4.37a10.15,10.15,0,0,0-8-3.71,10.28,10.28,0,0,0-5.28,1.32A9.38,9.38,0,0,0,40,89.25a11.88,11.88,0,0,0,0,10.56,9.52,9.52,0,0,0,3.63,3.63,11,11,0,0,0,5.28,1.24,10.05,10.05,0,0,0,8-3.8l4.7,4.38a15.09,15.09,0,0,1-5.61,4.2A20.11,20.11,0,0,1,48.45,110.87Z" transform="translate(0 0)" style="fill:#fff"/><path id="Path_175" data-name="Path 175" d="M96.73,78.6,83,110.38H75.76L62.06,78.6H70l9.66,22.7,9.82-22.7Z" transform="translate(0 0)" style="fill:#fff"/><path id="Path_176" data-name="Path 176" d="M128.51,78.6v31.78h-6L106.63,91.06v19.32H99.37V78.6h6.11l15.76,19.31V78.6Z" transform="translate(0 0)" style="fill:#fff"/></g><g id="Rénovation_et_construction_VN" data-name="Rénovation et construction VN" style="isolation:isolate"><g style="isolation:isolate"><path d="M18.42,129V118.5h3.16a3.67,3.67,0,0,1,2.61.88,2.93,2.93,0,0,1,.95,2.24,3.12,3.12,0,0,1-.43,1.65,3,3,0,0,1-1.16,1.12L26,129H23.7l-2-4.11H20.54V129Zm2.12-5.89h1a1.45,1.45,0,0,0,1-.38,1.31,1.31,0,0,0,.41-1,1.25,1.25,0,0,0-.41-1,1.6,1.6,0,0,0-1.13-.37h-.88Z" transform="translate(0 0)" style="fill:#fff"/><path d="M26.58,125.1a4.16,4.16,0,0,1,1.09-3,3.93,3.93,0,0,1,5.56-.06,5.17,5.17,0,0,1,1,3.51H28.69a1.74,1.74,0,0,0,.6,1.3,2.07,2.07,0,0,0,1.44.5,2.16,2.16,0,0,0,1.91-1l1.36,1a3.39,3.39,0,0,1-1.17,1.16,3.7,3.7,0,0,1-2.12.57,3.91,3.91,0,0,1-4.13-4.1Zm2.17-.85h3.38a1.6,1.6,0,0,0-.5-1.16,1.65,1.65,0,0,0-1.18-.43,1.54,1.54,0,0,0-1.17.45A1.85,1.85,0,0,0,28.75,124.25Zm.6-4,1-2.17h2.18l-1.46,2.17Z" transform="translate(0 0)" style="fill:#fff"/><path d="M39.51,121q2.72,0,2.71,3.51V129H40.15v-4.77a1.37,1.37,0,0,0-.38-1,1.23,1.23,0,0,0-.92-.39,1.32,1.32,0,0,0-1,.41,1.49,1.49,0,0,0-.39,1.06V129H35.38v-7.84h2v.91a2.45,2.45,0,0,1,.84-.78A2.42,2.42,0,0,1,39.51,121Z" transform="translate(0 0)" style="fill:#fff"/><path d="M44.54,128a4.23,4.23,0,0,1,0-5.9,4.09,4.09,0,0,1,3-1.18,4.2,4.2,0,0,1,3,1.18,4,4,0,0,1,1.21,3A3.9,3.9,0,0,1,50.6,128a4.54,4.54,0,0,1-6.06,0Zm.88-2.94a2.26,2.26,0,0,0,.61,1.63,2,2,0,0,0,1.53.64,2.1,2.1,0,0,0,1.56-.64,2.29,2.29,0,0,0,.6-1.63,2.33,2.33,0,0,0-.61-1.66,2.06,2.06,0,0,0-1.55-.65,2,2,0,0,0-1.53.65A2.33,2.33,0,0,0,45.42,125.1Z" transform="translate(0 0)" style="fill:#fff"/><path d="M57.43,129H55l-2.8-7.84h2.2l1.8,5.63,1.8-5.63h2.21Z" transform="translate(0 0)" style="fill:#fff"/><path d="M60.66,126.57a2.33,2.33,0,0,1,.84-1.87,3.21,3.21,0,0,1,2.2-.73,3,3,0,0,1,1.7.44v-.51a1,1,0,0,0-.38-.84,1.58,1.58,0,0,0-1-.31,4.53,4.53,0,0,0-2.08.55l-.78-1.41A5.8,5.8,0,0,1,64.2,121a3.28,3.28,0,0,1,2.52.82,3.21,3.21,0,0,1,.75,2.26v5H65.64l-.14-.51a2.47,2.47,0,0,1-1.9.71,3.1,3.1,0,0,1-2.09-.72A2.35,2.35,0,0,1,60.66,126.57Zm2.44-.85a1,1,0,0,0-.37.79.94.94,0,0,0,.39.78,1.54,1.54,0,0,0,1,.3,1.58,1.58,0,0,0,1-.29,1,1,0,0,0,0-1.59,1.79,1.79,0,0,0-2,0Z" transform="translate(0 0)" style="fill:#fff"/><path d="M69.19,121.16V119.5h2v1.66H72.7v1.67H71.23v3A1.69,1.69,0,0,0,71.5,127a1.16,1.16,0,0,0,.89.29l.37,0V129a3.93,3.93,0,0,1-.88.08,2.54,2.54,0,0,1-2-.79,3.74,3.74,0,0,1-.65-2.4v-3.09h-.83v-1.67Z" transform="translate(0 0)" style="fill:#fff"/><path d="M74.16,120.11a1.2,1.2,0,0,1,0-1.69,1.15,1.15,0,0,1,.85-.34,1.18,1.18,0,0,1,.87.34,1.2,1.2,0,0,1,0,1.69,1.18,1.18,0,0,1-.87.34A1.15,1.15,0,0,1,74.16,120.11ZM74,129v-7.84h2.07V129Z" transform="translate(0 0)" style="fill:#fff"/><path d="M78.46,128a3.9,3.9,0,0,1-1.2-2.94,4,4,0,0,1,1.21-3,4.43,4.43,0,0,1,6,0,4,4,0,0,1,1.22,3A3.93,3.93,0,0,1,84.52,128a4.2,4.2,0,0,1-3,1.16A4.16,4.16,0,0,1,78.46,128Zm.87-2.94a2.3,2.3,0,0,0,.61,1.63,2.18,2.18,0,0,0,3.09,0,2.26,2.26,0,0,0,.61-1.63,2.34,2.34,0,0,0-.62-1.66,2.15,2.15,0,0,0-3.08,0A2.38,2.38,0,0,0,79.33,125.1Z" transform="translate(0 0)" style="fill:#fff"/><path d="M91,121q2.72,0,2.71,3.51V129H91.66v-4.77a1.37,1.37,0,0,0-.38-1,1.23,1.23,0,0,0-.92-.39,1.32,1.32,0,0,0-1,.41,1.49,1.49,0,0,0-.39,1.06V129H86.89v-7.84h2v.91a2.45,2.45,0,0,1,.84-.78A2.42,2.42,0,0,1,91,121Z" transform="translate(0 0)" style="fill:#fff"/><path d="M98.59,125.1a4.21,4.21,0,0,1,1.09-3,3.93,3.93,0,0,1,5.56-.06,4.39,4.39,0,0,1,1,3.06c0,.2,0,.36,0,.45h-5.52a1.74,1.74,0,0,0,.6,1.3,2.07,2.07,0,0,0,1.44.5,2.14,2.14,0,0,0,1.9-1l1.37,1a3.49,3.49,0,0,1-1.17,1.16,3.71,3.71,0,0,1-2.13.57,3.93,3.93,0,0,1-4.13-4.1Zm2.18-.85h3.37a1.59,1.59,0,0,0-.49-1.16,1.67,1.67,0,0,0-1.19-.43,1.54,1.54,0,0,0-1.17.45A1.83,1.83,0,0,0,100.77,124.25Z" transform="translate(0 0)" style="fill:#fff"/><path d="M107.59,121.16V119.5h2v1.66h1.47v1.67h-1.47v3a1.69,1.69,0,0,0,.27,1.12,1.16,1.16,0,0,0,.89.29l.37,0V129a3.93,3.93,0,0,1-.88.08,2.54,2.54,0,0,1-2-.79,3.74,3.74,0,0,1-.65-2.4v-3.09h-.83v-1.67Z" transform="translate(0 0)" style="fill:#fff"/></g><g style="isolation:isolate"><path d="M15,142.37a2.76,2.76,0,0,0,1.77-.71l.55,1.7a3.79,3.79,0,0,1-2.44.84,4.13,4.13,0,0,1-3-1.16,4.25,4.25,0,0,1,0-5.9,4,4,0,0,1,3-1.18,4,4,0,0,1,2.48.84l-.59,1.74a2.66,2.66,0,0,0-1.83-.75,2,2,0,0,0-1.56.66,2.34,2.34,0,0,0-.6,1.63,2.26,2.26,0,0,0,.63,1.65A2.19,2.19,0,0,0,15,142.37Z" transform="translate(0 0)" style="fill:#fff"/><path d="M19.19,143A3.9,3.9,0,0,1,18,140.1a4,4,0,0,1,1.21-3,4.12,4.12,0,0,1,3-1.18,4.17,4.17,0,0,1,3,1.18,4,4,0,0,1,1.22,3A3.93,3.93,0,0,1,25.25,143a4.2,4.2,0,0,1-3,1.16A4.16,4.16,0,0,1,19.19,143Zm.87-2.94a2.3,2.3,0,0,0,.61,1.63,2.18,2.18,0,0,0,3.09,0,2.26,2.26,0,0,0,.61-1.63,2.34,2.34,0,0,0-.62-1.66,2.15,2.15,0,0,0-3.08,0A2.38,2.38,0,0,0,20.06,140.1Z" transform="translate(0 0)" style="fill:#fff"/><path d="M31.75,136q2.72,0,2.71,3.51V144H32.39v-4.77a1.37,1.37,0,0,0-.38-1,1.23,1.23,0,0,0-.92-.39,1.32,1.32,0,0,0-1,.41,1.49,1.49,0,0,0-.39,1.06V144H27.62v-7.84h2v.91a2.45,2.45,0,0,1,.84-.78A2.42,2.42,0,0,1,31.75,136Z" transform="translate(0 0)" style="fill:#fff"/><path d="M38.42,144.2a3.58,3.58,0,0,1-1.8-.43,3.12,3.12,0,0,1-1.12-1l1.21-1.08a2.28,2.28,0,0,0,1.8.85,1.22,1.22,0,0,0,.71-.18.61.61,0,0,0,.25-.52.65.65,0,0,0-.38-.55,5.12,5.12,0,0,0-.93-.42,8.37,8.37,0,0,1-1.09-.45,2.47,2.47,0,0,1-.92-.79,2.25,2.25,0,0,1-.38-1.31,2,2,0,0,1,.81-1.7,3.22,3.22,0,0,1,2-.63,2.9,2.9,0,0,1,2.68,1.4l-1.36,1a1.78,1.78,0,0,0-1.41-.76.92.92,0,0,0-.59.18.54.54,0,0,0-.22.45.66.66,0,0,0,.38.56,5.09,5.09,0,0,0,.93.4,8.25,8.25,0,0,1,1.1.42,2.35,2.35,0,0,1,.93.77,2.21,2.21,0,0,1,.38,1.31,2.18,2.18,0,0,1-.86,1.8A3.33,3.33,0,0,1,38.42,144.2Z" transform="translate(0 0)" style="fill:#fff"/><path d="M42.74,136.16V134.5h2v1.66h1.47v1.67H44.78v3a1.69,1.69,0,0,0,.27,1.12,1.16,1.16,0,0,0,.89.29l.37,0V144a3.93,3.93,0,0,1-.88.08,2.54,2.54,0,0,1-2-.79,3.74,3.74,0,0,1-.65-2.4v-3.09H41.9v-1.67Z" transform="translate(0 0)" style="fill:#fff"/><path d="M51.73,136v2.1c-1.41,0-2.12.84-2.12,2.52V144H47.54v-7.84h2v1.13a2.22,2.22,0,0,1,.84-1A2.34,2.34,0,0,1,51.73,136Z" transform="translate(0 0)" style="fill:#fff"/><path d="M55.6,144.2q-2.72,0-2.72-3.52v-4.52H55v4.76a1.44,1.44,0,0,0,.38,1,1.26,1.26,0,0,0,.93.38,1.3,1.3,0,0,0,1-.41,1.5,1.5,0,0,0,.38-1v-4.71h2.07V144h-2v-.92a2.47,2.47,0,0,1-.84.79A2.52,2.52,0,0,1,55.6,144.2Z" transform="translate(0 0)" style="fill:#fff"/><path d="M65.15,142.37a2.76,2.76,0,0,0,1.77-.71l.56,1.7a3.81,3.81,0,0,1-2.45.84A4.13,4.13,0,0,1,62,143a4.28,4.28,0,0,1,0-5.9A4,4,0,0,1,65,136a4,4,0,0,1,2.47.84l-.58,1.74a2.66,2.66,0,0,0-1.83-.75,2,2,0,0,0-1.57.66,2.34,2.34,0,0,0-.59,1.63,2.26,2.26,0,0,0,.63,1.65A2.17,2.17,0,0,0,65.15,142.37Z" transform="translate(0 0)" style="fill:#fff"/><path d="M68.83,136.16V134.5h2v1.66h1.47v1.67H70.87v3a1.7,1.7,0,0,0,.26,1.12,1.16,1.16,0,0,0,.89.29l.38,0V144a4,4,0,0,1-.89.08,2.54,2.54,0,0,1-2.05-.79,3.74,3.74,0,0,1-.65-2.4v-3.09H68v-1.67Z" transform="translate(0 0)" style="fill:#fff"/><path d="M73.79,135.11a1.22,1.22,0,0,1,0-1.69,1.27,1.27,0,0,1,1.73,0,1.22,1.22,0,0,1,0,1.69,1.27,1.27,0,0,1-1.73,0ZM73.63,144v-7.84H75.7V144Z" transform="translate(0 0)" style="fill:#fff"/><path d="M78.09,143a3.9,3.9,0,0,1-1.19-2.94,4,4,0,0,1,1.2-3,4.13,4.13,0,0,1,3-1.18,4.2,4.2,0,0,1,3,1.18,4,4,0,0,1,1.21,3A3.93,3.93,0,0,1,84.15,143a4.2,4.2,0,0,1-3,1.16A4.16,4.16,0,0,1,78.09,143ZM79,140.1a2.29,2.29,0,0,0,.6,1.63,2.18,2.18,0,0,0,3.09,0,2.26,2.26,0,0,0,.61-1.63,2.33,2.33,0,0,0-.61-1.66,2.06,2.06,0,0,0-1.55-.65,2,2,0,0,0-1.54.65A2.37,2.37,0,0,0,79,140.1Z" transform="translate(0 0)" style="fill:#fff"/><path d="M90.65,136q2.71,0,2.72,3.51V144H91.3v-4.77a1.38,1.38,0,0,0-.39-1,1.23,1.23,0,0,0-.92-.39,1.32,1.32,0,0,0-1,.41,1.48,1.48,0,0,0-.38,1.06V144H86.53v-7.84h2v.91a2.45,2.45,0,0,1,.84-.78A2.42,2.42,0,0,1,90.65,136Z" transform="translate(0 0)" style="fill:#fff"/><path d="M104.09,144H101.8l-3.87-10.5h2.32l2.69,8,2.68-8H108Z" transform="translate(0 0)" style="fill:#fff"/><path d="M115.64,144l-4.53-7.14V144H109V133.5h2.14l4.49,7.2v-7.2h2.08V144Z" transform="translate(0 0)" style="fill:#fff"/></g></g></g></svg>