<svg id="Component_85_13" data-name="Component 85 13" xmlns="http://www.w3.org/2000/svg" viewBox="0 0 111.66 55.15"><g id="Group_599" data-name="Group 599"><path id="Path_173" data-name="Path 173" d="M17.5,28l-5.31-7.67H6.38V28H0V.43H11.9a15.5,15.5,0,0,1,6.31,1.22,9,9,0,0,1,4.16,3.44,10.33,10.33,0,0,1-.07,10.62,9.34,9.34,0,0,1-4.16,3.37L24.31,28H17.49Zm-.14-17.57A4.17,4.17,0,0,0,15.85,7a6.48,6.48,0,0,0-4.37-1.3H6.31v9.61h5.17A6.42,6.42,0,0,0,15.85,14a4.25,4.25,0,0,0,1.51-3.51Z" transform="translate(0 0)" style="fill:#777"/><path id="Path_174" data-name="Path 174" d="M42.1,28.54a15.57,15.57,0,0,1-7.6-1.79,14.68,14.68,0,0,1-5.38-5.09,14.21,14.21,0,0,1-1.94-7.39A13.91,13.91,0,0,1,29.12,7a13.6,13.6,0,0,1,5.38-5.1A16.24,16.24,0,0,1,42.17,0a15.77,15.77,0,0,1,6.46,1.29A13,13,0,0,1,53.5,5l-4.09,3.8a8.78,8.78,0,0,0-6.95-3.23,8.88,8.88,0,0,0-4.59,1.15,8.13,8.13,0,0,0-3.16,3.08,10.36,10.36,0,0,0,0,9.18,8.41,8.41,0,0,0,3.16,3.16,9.63,9.63,0,0,0,4.59,1.07,8.71,8.71,0,0,0,6.95-3.3l4.09,3.8a13,13,0,0,1-4.87,3.66A17.6,17.6,0,0,1,42.1,28.54Z" transform="translate(0 0)" style="fill:#777"/><path id="Path_175" data-name="Path 175" d="M84.05.5,72.15,28.11H65.84L53.93.5h6.89l8.39,19.73L77.74.5Z" transform="translate(0 0)" style="fill:#777"/><path id="Path_176" data-name="Path 176" d="M111.66.5V28.11h-5.23L92.66,11.33V28.11H86.35V.5h5.3l13.7,16.79V.5Z" transform="translate(0 0)" style="fill:#777"/></g><g id="Rénovation_et_construction_VN" data-name="Rénovation et construction VN" style="isolation:isolate"><g style="isolation:isolate"><path d="M16.55,42v-9.1h2.74a3.13,3.13,0,0,1,2.26.77,2.51,2.51,0,0,1,.82,1.93A2.7,2.7,0,0,1,22,37a2.55,2.55,0,0,1-1,1l2.15,4h-2l-1.76-3.56h-1V42Zm1.83-5.11h.86a1.3,1.3,0,0,0,.89-.32,1.16,1.16,0,0,0,.36-.9,1.09,1.09,0,0,0-.36-.86,1.38,1.38,0,0,0-1-.32h-.77Z" transform="translate(0 0)" style="fill:#777"/><path d="M23.62,38.6A3.68,3.68,0,0,1,24.56,36,3.12,3.12,0,0,1,27,35a3.08,3.08,0,0,1,2.43,1,3.84,3.84,0,0,1,.87,2.66c0,.17,0,.3,0,.39H25.45A1.51,1.51,0,0,0,26,40.15a1.83,1.83,0,0,0,1.25.44,1.89,1.89,0,0,0,1.65-.83l1.19.89a3,3,0,0,1-1,1,3.19,3.19,0,0,1-1.84.49,3.4,3.4,0,0,1-3.58-3.55Zm1.89-.74h2.92a1.38,1.38,0,0,0-.43-1,1.45,1.45,0,0,0-1-.38,1.38,1.38,0,0,0-1,.39A1.57,1.57,0,0,0,25.51,37.86ZM26,34.43l.87-1.88h1.88l-1.26,1.88Z" transform="translate(0 0)" style="fill:#777"/><path d="M34.83,35c1.57,0,2.35,1,2.35,3V42H35.39V37.85a1.19,1.19,0,0,0-.34-.89,1.09,1.09,0,0,0-.8-.34,1.12,1.12,0,0,0-.87.36,1.31,1.31,0,0,0-.33.92V42h-1.8v-6.8H33V36a2,2,0,0,1,.72-.67A2.15,2.15,0,0,1,34.83,35Z" transform="translate(0 0)" style="fill:#777"/><path d="M39.19,41.15a3.68,3.68,0,0,1,0-5.12,3.84,3.84,0,0,1,5.22,0,3.66,3.66,0,0,1,0,5.11,3.95,3.95,0,0,1-5.25,0ZM40,38.6A1.93,1.93,0,0,0,40.48,40a1.74,1.74,0,0,0,1.33.55A1.76,1.76,0,0,0,43.15,40a2,2,0,0,0,.53-1.41,2,2,0,0,0-.53-1.44,1.79,1.79,0,0,0-1.34-.56,1.75,1.75,0,0,0-1.33.56A2,2,0,0,0,40,38.6Z" transform="translate(0 0)" style="fill:#777"/><path d="M50.36,42H48.28l-2.43-6.8h1.91l1.56,4.89,1.56-4.89h1.91Z" transform="translate(0 0)" style="fill:#777"/><path d="M53.16,39.87a2,2,0,0,1,.72-1.62,2.85,2.85,0,0,1,1.92-.63,2.53,2.53,0,0,1,1.46.38v-.44a.89.89,0,0,0-.32-.73,1.39,1.39,0,0,0-.91-.27,4,4,0,0,0-1.81.48l-.67-1.22a4.39,4.39,0,0,1,1.21-.57A4.6,4.6,0,0,1,56.22,35a2.88,2.88,0,0,1,2.19.71,2.81,2.81,0,0,1,.65,2V42H57.47l-.11-.44a2.17,2.17,0,0,1-1.66.61,2.74,2.74,0,0,1-1.81-.62A2,2,0,0,1,53.16,39.87Zm2.12-.73a.83.83,0,0,0-.33.68.82.82,0,0,0,.34.68,1.5,1.5,0,0,0,1.69,0,.79.79,0,0,0,.32-.68.81.81,0,0,0-.32-.69,1.36,1.36,0,0,0-.86-.26A1.25,1.25,0,0,0,55.28,39.14Z" transform="translate(0 0)" style="fill:#777"/><path d="M60.55,35.18V33.75h1.77v1.43H63.6v1.46H62.32v2.62a1.52,1.52,0,0,0,.23,1,1,1,0,0,0,.77.24h.33V42a3.79,3.79,0,0,1-.77.06,2.16,2.16,0,0,1-1.77-.68,3.21,3.21,0,0,1-.57-2.08V36.64h-.71V35.18Z" transform="translate(0 0)" style="fill:#777"/><path d="M64.86,34.28a1,1,0,0,1-.3-.74,1,1,0,0,1,.3-.73,1,1,0,0,1,.74-.29,1,1,0,0,1,.75.29,1,1,0,0,1,.3.73,1,1,0,0,1-.3.74,1.05,1.05,0,0,1-.75.29A1,1,0,0,1,64.86,34.28ZM64.71,42v-6.8h1.8V42Z" transform="translate(0 0)" style="fill:#777"/><path d="M68.58,41.15a3.4,3.4,0,0,1-1-2.55,3.47,3.47,0,0,1,1-2.57,3.84,3.84,0,0,1,5.22,0,3.63,3.63,0,0,1,0,5.11,3.95,3.95,0,0,1-5.25,0Zm.76-2.55A2,2,0,0,0,69.87,40a1.74,1.74,0,0,0,1.33.55A1.79,1.79,0,0,0,72.55,40a2,2,0,0,0,.52-1.41,2,2,0,0,0-.53-1.44,1.79,1.79,0,0,0-1.34-.56,1.75,1.75,0,0,0-1.33.56A2,2,0,0,0,69.34,38.6Z" transform="translate(0 0)" style="fill:#777"/><path d="M79.47,35c1.57,0,2.35,1,2.35,3V42H80V37.85A1.22,1.22,0,0,0,79.7,37,1.18,1.18,0,0,0,78,37a1.31,1.31,0,0,0-.33.92V42h-1.8v-6.8h1.76V36a2.22,2.22,0,0,1,1.82-1Z" transform="translate(0 0)" style="fill:#777"/><path d="M86,38.6A3.68,3.68,0,0,1,87,36a3.12,3.12,0,0,1,2.39-1,3.08,3.08,0,0,1,2.43,1,3.84,3.84,0,0,1,.87,2.66c0,.17,0,.3,0,.39H87.87a1.47,1.47,0,0,0,.52,1.12,1.79,1.79,0,0,0,1.24.44,1.89,1.89,0,0,0,1.65-.83l1.19.89a3,3,0,0,1-1,1,3.19,3.19,0,0,1-1.84.49A3.4,3.4,0,0,1,86,38.6Zm1.89-.74h2.92a1.35,1.35,0,0,0-.43-1,1.45,1.45,0,0,0-1-.38,1.38,1.38,0,0,0-1,.39A1.57,1.57,0,0,0,87.92,37.86Z" transform="translate(0 0)" style="fill:#777"/><path d="M93.83,35.18V33.75H95.6v1.43h1.28v1.46H95.6v2.62a1.52,1.52,0,0,0,.23,1,1,1,0,0,0,.77.24h.33V42a3.79,3.79,0,0,1-.77.06,2.2,2.2,0,0,1-1.78-.68,3.27,3.27,0,0,1-.56-2.08V36.64H93.1V35.18Z" transform="translate(0 0)" style="fill:#777"/></g><g style="isolation:isolate"><path d="M13.54,53.56A2.35,2.35,0,0,0,15.07,53l.48,1.47a3.24,3.24,0,0,1-2.11.73,3.56,3.56,0,0,1-2.61-1,3.71,3.71,0,0,1,0-5.12,3.53,3.53,0,0,1,2.58-1,3.41,3.41,0,0,1,2.15.73l-.51,1.51a2.27,2.27,0,0,0-1.58-.65,1.73,1.73,0,0,0-1.36.57,2,2,0,0,0-.52,1.42A1.91,1.91,0,0,0,12.15,53,1.86,1.86,0,0,0,13.54,53.56Z" transform="translate(0 0)" style="fill:#777"/><path d="M17.21,54.15a3.4,3.4,0,0,1-1-2.55A3.44,3.44,0,0,1,17.23,49a3.56,3.56,0,0,1,2.6-1,3.57,3.57,0,0,1,2.61,1,3.63,3.63,0,0,1,0,5.11,3.59,3.59,0,0,1-2.63,1A3.6,3.6,0,0,1,17.21,54.15ZM18,51.6A2,2,0,0,0,18.5,53a1.74,1.74,0,0,0,1.33.55A1.77,1.77,0,0,0,21.18,53a2,2,0,0,0,.52-1.41,2,2,0,0,0-.53-1.44,1.77,1.77,0,0,0-1.34-.56,1.75,1.75,0,0,0-1.33.56A2,2,0,0,0,18,51.6Z" transform="translate(0 0)" style="fill:#777"/><path d="M28.1,48c1.57,0,2.35,1,2.35,3V55H28.66V50.85a1.22,1.22,0,0,0-.33-.89,1.1,1.1,0,0,0-.8-.34,1.13,1.13,0,0,0-.88.36,1.31,1.31,0,0,0-.33.92V55h-1.8v-6.8h1.76V49a2.22,2.22,0,0,1,1.82-1Z" transform="translate(0 0)" style="fill:#777"/><path d="M33.88,55.15a3.05,3.05,0,0,1-1.56-.37,2.8,2.8,0,0,1-1-.89l1-.94a2,2,0,0,0,1.56.74,1,1,0,0,0,.61-.16.52.52,0,0,0,.22-.45.56.56,0,0,0-.33-.47,4,4,0,0,0-.8-.37,7.61,7.61,0,0,1-.95-.39,2.07,2.07,0,0,1-.79-.69A1.81,1.81,0,0,1,31.58,50a1.76,1.76,0,0,1,.71-1.47A2.72,2.72,0,0,1,34.05,48a2.52,2.52,0,0,1,2.33,1.21l-1.18.89A1.53,1.53,0,0,0,34,49.46a.88.88,0,0,0-.51.14.51.51,0,0,0-.2.4.56.56,0,0,0,.33.48,4.1,4.1,0,0,0,.81.35,9.2,9.2,0,0,1,1,.36,2.07,2.07,0,0,1,.81.67A1.87,1.87,0,0,1,36.5,53a1.93,1.93,0,0,1-.74,1.57A3,3,0,0,1,33.88,55.15Z" transform="translate(0 0)" style="fill:#777"/><path d="M37.63,48.18V46.75H39.4v1.43h1.27v1.46H39.4v2.62a1.53,1.53,0,0,0,.22,1,1.06,1.06,0,0,0,.78.24h.32V55a3.68,3.68,0,0,1-.76.06,2.2,2.2,0,0,1-1.78-.68,3.21,3.21,0,0,1-.56-2.08V49.64H36.9V48.18Z" transform="translate(0 0)" style="fill:#777"/><path d="M45.42,48v1.82c-1.23,0-1.84.73-1.84,2.19v3H41.79v-6.8h1.75v1a1.92,1.92,0,0,1,.73-.84A2.09,2.09,0,0,1,45.42,48Z" transform="translate(0 0)" style="fill:#777"/><path d="M48.77,55.15c-1.57,0-2.35-1-2.35-3V48.18h1.79v4.13a1.22,1.22,0,0,0,.33.89,1.1,1.1,0,0,0,.8.34,1.13,1.13,0,0,0,.88-.36,1.31,1.31,0,0,0,.33-.92V48.18h1.79V55H50.59v-.79a2.16,2.16,0,0,1-.73.67A2.09,2.09,0,0,1,48.77,55.15Z" transform="translate(0 0)" style="fill:#777"/><path d="M57.05,53.56A2.35,2.35,0,0,0,58.58,53l.49,1.47a3.29,3.29,0,0,1-2.12.73,3.56,3.56,0,0,1-2.61-1,3.71,3.71,0,0,1,0-5.12,3.53,3.53,0,0,1,2.58-1,3.41,3.41,0,0,1,2.15.73l-.51,1.51A2.27,2.27,0,0,0,57,49.6a1.73,1.73,0,0,0-1.36.57,2,2,0,0,0-.52,1.42A1.91,1.91,0,0,0,55.66,53,1.86,1.86,0,0,0,57.05,53.56Z" transform="translate(0 0)" style="fill:#777"/><path d="M60.24,48.18V46.75H62v1.43h1.28v1.46H62v2.62a1.52,1.52,0,0,0,.23,1,1,1,0,0,0,.77.24h.33V55a3.79,3.79,0,0,1-.77.06,2.19,2.19,0,0,1-1.77-.68,3.21,3.21,0,0,1-.57-2.08V49.64h-.71V48.18Z" transform="translate(0 0)" style="fill:#777"/><path d="M64.54,47.28a1,1,0,0,1-.3-.74,1,1,0,0,1,.3-.73,1,1,0,0,1,.74-.29,1,1,0,0,1,.75.29,1,1,0,0,1,.3.73,1,1,0,0,1-.3.74,1.05,1.05,0,0,1-.75.29A1,1,0,0,1,64.54,47.28ZM64.4,55v-6.8h1.79V55Z" transform="translate(0 0)" style="fill:#777"/><path d="M68.26,54.15a3.4,3.4,0,0,1-1-2.55,3.44,3.44,0,0,1,1-2.57,3.56,3.56,0,0,1,2.6-1,3.61,3.61,0,0,1,2.62,1,3.65,3.65,0,0,1,0,5.11,3.95,3.95,0,0,1-5.25,0ZM69,51.6A2,2,0,0,0,69.55,53a1.74,1.74,0,0,0,1.33.55A1.77,1.77,0,0,0,72.23,53a2,2,0,0,0,.52-1.41,2,2,0,0,0-.53-1.44,1.77,1.77,0,0,0-1.34-.56,1.75,1.75,0,0,0-1.33.56A2,2,0,0,0,69,51.6Z" transform="translate(0 0)" style="fill:#777"/><path d="M79.15,48c1.57,0,2.35,1,2.35,3V55H79.71V50.85a1.22,1.22,0,0,0-.33-.89,1.1,1.1,0,0,0-.8-.34,1.13,1.13,0,0,0-.88.36,1.31,1.31,0,0,0-.33.92V55H75.58v-6.8h1.75V49a2.16,2.16,0,0,1,.73-.67A2.09,2.09,0,0,1,79.15,48Z" transform="translate(0 0)" style="fill:#777"/><path d="M90.8,55h-2l-3.35-9.1h2l2.33,6.94,2.32-6.94h2Z" transform="translate(0 0)" style="fill:#777"/><path d="M100.81,55l-3.93-6.19V55h-1.8v-9.1h1.85l3.89,6.24V45.88h1.81V55Z" transform="translate(0 0)" style="fill:#777"/></g></g></svg>